<?xml version="1.0" encoding="UTF-8" standalone="no"?>
<svg
   xmlns:dc="http://purl.org/dc/elements/1.1/"
   xmlns:cc="http://creativecommons.org/ns#"
   xmlns:rdf="http://www.w3.org/1999/02/22-rdf-syntax-ns#"
   xmlns:svg="http://www.w3.org/2000/svg"
   xmlns="http://www.w3.org/2000/svg"
   xmlns:sodipodi="http://sodipodi.sourceforge.net/DTD/sodipodi-0.dtd"
   xmlns:inkscape="http://www.inkscape.org/namespaces/inkscape"
   version="1.1"
   x="0px"
   y="0px"
   viewBox="0 0 56.300617 89.268753"
   xml:space="preserve"
   id="svg10"
   sodipodi:docname="drip.svg"
   width="56.300617"
   height="89.268753"
   inkscape:version="1.0.2 (e86c870879, 2021-01-15)"><metadata
     id="metadata16"><rdf:RDF><cc:Work
         rdf:about=""><dc:format>image/svg+xml</dc:format><dc:type
           rdf:resource="http://purl.org/dc/dcmitype/StillImage" /><dc:title></dc:title></cc:Work></rdf:RDF></metadata><defs
     id="defs14" /><sodipodi:namedview
     pagecolor="#ffffff"
     bordercolor="#666666"
     borderopacity="1"
     objecttolerance="10"
     gridtolerance="10"
     guidetolerance="10"
     inkscape:pageopacity="0"
     inkscape:pageshadow="2"
     inkscape:window-width="1362"
     inkscape:window-height="703"
     id="namedview12"
     showgrid="false"
     fit-margin-top="0"
     fit-margin-left="0"
     fit-margin-right="0"
     fit-margin-bottom="0"
     inkscape:zoom="4.8351648"
     inkscape:cx="-10.874873"
     inkscape:cy="39.598295"
     inkscape:window-x="0"
     inkscape:window-y="40"
     inkscape:window-maximized="0"
     inkscape:current-layer="svg10" /><g
     id="g4"
     transform="translate(-15.114645,-0.73125)"
     style="fill:#e43717;fill-opacity:1"><path
       d="m 31.9,88 c 3.4,1.4 7.1,2 10.7,2 7.2,0 14.5,-2.6 19.9,-7.4 4.8,-4.2 12.1,-13.9 7.4,-31.2 v 0 C 68.1,44.7 64.6,38.7 61.3,33 56.2,24.2 51,15.2 51.1,2.8 51.1,2 50.6,1.2 49.9,0.9 49.1,0.6 48.3,0.7 47.6,1.2 29,17.5 12,47.1 15.6,68.4 c 1.7,9.2 7.3,16 16.3,19.6 z M 51.3,72.1 c 3.4,-2.4 4.9,-5.8 4.2,-9.3 -0.3,-1.4 0.6,-2.7 2,-3 1.4,-0.3 2.7,0.6 3,2 1.1,5.5 -1.2,10.9 -6.2,14.4 -0.4,0.3 -0.9,0.5 -1.4,0.5 -0.8,0 -1.6,-0.4 -2.1,-1.1 -1,-1.2 -0.7,-2.7 0.5,-3.5 z m -6.7,2.6 c 0.2,0 0.3,0 0.5,0 2.1,0.2 2.5,1.8 2.5,2.6 0,0.8 -0.6,2.4 -2.7,2.4 0,0 0,0 0,0 -2,0 -2.7,-1.6 -2.7,-2.4 -0.1,-0.7 0.3,-2.4 2.4,-2.6 z"
       id="path2"
       style="fill:#e43717;fill-opacity:1" /></g></svg>
