<?xml version="1.0" encoding="UTF-8" standalone="no"?>
<!-- Generator: Adobe Illustrator 24.1.2, SVG Export Plug-In . SVG Version: 6.00 Build 0)  -->

<svg
   version="1.1"
   id="drops"
   x="0px"
   y="0px"
   viewBox="0 0 58.157388 90.467485"
   xml:space="preserve"
   sodipodi:docname="emoji_u1f4a6.svg"
   width="59.23"
   height="92.136002"
   inkscape:version="1.2.1 (9c6d41e410, 2022-07-14)"
   xmlns:inkscape="http://www.inkscape.org/namespaces/inkscape"
   xmlns:sodipodi="http://sodipodi.sourceforge.net/DTD/sodipodi-0.dtd"
   xmlns="http://www.w3.org/2000/svg"
   xmlns:svg="http://www.w3.org/2000/svg"><defs
   id="defs31">
	
	
	
	
	
	
</defs><sodipodi:namedview
   id="namedview29"
   pagecolor="#ffffff"
   bordercolor="#000000"
   borderopacity="0.25"
   inkscape:showpageshadow="2"
   inkscape:pageopacity="0.0"
   inkscape:pagecheckerboard="0"
   inkscape:deskcolor="#d1d1d1"
   showgrid="false"
   inkscape:zoom="6.109375"
   inkscape:cx="-0.57289003"
   inkscape:cy="46.976982"
   inkscape:window-width="1920"
   inkscape:window-height="1011"
   inkscape:window-x="0"
   inkscape:window-y="0"
   inkscape:window-maximized="1"
   inkscape:current-layer="drops" />
<g
   id="g207"
   transform="translate(-3.6767918,-32.756604)"><g
     id="g4"
     style="fill:#ff6600">
		<path
   style="fill:#ff6600"
   d="M 59.2,94.33 C 57.54,110.77 45.12,121.95 28.65,120.67 12.18,119.39 5.36,105.49 6.2,92.33 c 0.89,-14.08 7.68,-20.35 12,-29 6,-12 3.92,-21.06 5.16,-25.9 0.54,-2.11 3.09,-2.93 4.74,-1.51 9.74,8.35 33.58,33.86 31.1,58.41 z"
   id="path2" />
	</g><g
     id="g16"
     style="fill:#ffb380">
		<path
   style="fill:#ffb380"
   d="m 53.42,94.82 c -0.37,1.11 -0.89,2.2 -1.73,3 -0.85,0.81 -2.07,1.29 -3.2,1.02 -1.66,-0.39 -2.58,-2.13 -3.16,-3.73 -1.59,-4.38 -2.18,-9.11 -1.72,-13.74 0.26,-2.64 1.23,-6.09 4.22,-6.81 2,-0.48 3.27,1.08 4.09,2.7 2.52,4.97 3.26,12.31 1.5,17.56 z"
   id="path14" />
	</g></g>
</svg>
